<?xml version="1.0" standalone="no"?>
<svg xmlns:xlink="http://www.w3.org/1999/xlink" id="wave" style="transform:rotate(180deg); transition: 0.3s" viewBox="0 0 1440 100" version="1.1" xmlns="http://www.w3.org/2000/svg"><defs><linearGradient id="sw-gradient-0" x1="0" x2="0" y1="1" y2="0"><stop stop-color="rgba(255, 240, 245, 1)" offset="0%"/><stop stop-color="rgba(255, 240, 245, 1)" offset="100%"/></linearGradient></defs><path style="transform:translate(0, 0px); opacity:1" fill="url(#sw-gradient-0)" d="M0,20L48,30C96,40,192,60,288,65C384,70,480,60,576,51.7C672,43,768,37,864,43.3C960,50,1056,70,1152,70C1248,70,1344,50,1440,41.7C1536,33,1632,37,1728,31.7C1824,27,1920,13,2016,13.3C2112,13,2208,27,2304,36.7C2400,47,2496,53,2592,51.7C2688,50,2784,40,2880,45C2976,50,3072,70,3168,65C3264,60,3360,30,3456,28.3C3552,27,3648,53,3744,58.3C3840,63,3936,47,4032,33.3C4128,20,4224,10,4320,15C4416,20,4512,40,4608,53.3C4704,67,4800,73,4896,78.3C4992,83,5088,87,5184,83.3C5280,80,5376,70,5472,66.7C5568,63,5664,67,5760,71.7C5856,77,5952,83,6048,75C6144,67,6240,43,6336,30C6432,17,6528,13,6624,21.7C6720,30,6816,50,6864,60L6912,70L6912,100L6864,100C6816,100,6720,100,6624,100C6528,100,6432,100,6336,100C6240,100,6144,100,6048,100C5952,100,5856,100,5760,100C5664,100,5568,100,5472,100C5376,100,5280,100,5184,100C5088,100,4992,100,4896,100C4800,100,4704,100,4608,100C4512,100,4416,100,4320,100C4224,100,4128,100,4032,100C3936,100,3840,100,3744,100C3648,100,3552,100,3456,100C3360,100,3264,100,3168,100C3072,100,2976,100,2880,100C2784,100,2688,100,2592,100C2496,100,2400,100,2304,100C2208,100,2112,100,2016,100C1920,100,1824,100,1728,100C1632,100,1536,100,1440,100C1344,100,1248,100,1152,100C1056,100,960,100,864,100C768,100,672,100,576,100C480,100,384,100,288,100C192,100,96,100,48,100L0,100Z"/></svg>